<?xml version="1.0" standalone="no"?><!DOCTYPE svg PUBLIC "-//W3C//DTD SVG 1.1//EN" "http://www.w3.org/Graphics/SVG/1.1/DTD/svg11.dtd"><svg t="1594622740163" class="icon" viewBox="0 0 1152 1024" version="1.1" xmlns="http://www.w3.org/2000/svg" p-id="2141" xmlns:xlink="http://www.w3.org/1999/xlink" width="225" height="200"><defs><style type="text/css"></style></defs><path d="M514.430841 102.189371l-74.79704 121.838779H144.062096c-44.201563 0-80.034939 35.832052-80.034939 80.033615V879.937904c0 44.201563 35.833376 80.034939 80.034939 80.034939h864.372574c44.201563 0 80.034939-35.833376 80.034939-80.034939V304.061765c0-44.201563-35.833376-80.033614-80.034939-80.033615h-103.488911L830.148719 102.188047a80.034939 80.034939 0 0 0-68.206613-38.162215H582.637454a80.034939 80.034939 0 0 0-68.206613 38.162215z m-110.619819 57.810298l56.053733-91.308212A144.062096 144.062096 0 0 1 582.638779 0h179.303327a144.062096 144.062096 0 0 1 122.774023 68.691457l56.052409 91.308212h67.666132c79.563343 0 144.062096 64.500078 144.062096 144.062096V879.937904C1152.496766 959.501247 1087.998013 1024 1008.43467 1024h-864.372574C64.498753 1024 0 959.501247 0 879.937904V304.061765c0-79.562018 64.498753-144.062096 144.062096-144.062096h259.748926zM672.28978 815.973009c123.771529 0 224.097035-100.283115 224.097035-223.972512 0-123.690722-100.325506-223.972512-224.097035-223.972513s-224.097035 100.280466-224.097035 223.972513c0 123.689397 100.325506 223.972512 224.097035 223.972512z m0 64.027157c-159.126686 0-288.124191-128.941868-288.124191-287.999669 0-159.057801 128.997506-288.000994 288.124191-288.000994S960.413972 432.941371 960.413972 592.000497c0 159.057801-128.997506 287.999669-288.124192 287.999669z" fill="#2c2c2c" p-id="2142"></path><path d="M144.062096 287.999669m47.999503 0l96.083788 0q47.999503 0 47.999503 47.999503l0 0.001325q0 47.999503-47.999503 47.999503l-96.083788 0q-47.999503 0-47.999503-47.999503l0-0.001325q0-47.999503 47.999503-47.999503Z" fill="#2c2c2c" p-id="2143"></path></svg>