<svg fill="#currentColor" t="1594622724391" class="icon" viewBox="0 0 1024 1024" version="1.1" xmlns="http://www.w3.org/2000/svg" p-id="1864" xmlns:xlink="http://www.w3.org/1999/xlink" width="200" height="200"><defs><style type="text/css"></style></defs><path d="M123.733 992c-19.2 0-36.266-6.4-51.2-19.2C51.2 951.467 42.667 921.6 51.2 893.867c8.533-25.6 25.6-42.667 53.333-51.2 6.4-4.267 12.8-4.267 14.934-4.267 2.133-2.133 6.4-2.133 10.666-2.133 0 0 2.134-2.134 4.267-2.134V832s0-2.133-2.133-4.267l-44.8-55.466c-6.4-8.534-6.4-21.334 2.133-27.734l46.933-46.933c6.4-6.4 17.067-8.533 25.6-4.267 4.267 2.134 8.534 6.4 10.667 8.534 2.133 0 2.133 2.133 4.267 2.133 51.2 42.667 102.4 74.667 157.866 93.867C441.6 838.4 546.133 834.133 646.4 782.933c0 0 2.133-2.133 2.133-6.4L352 488.533h-2.133l-2.134 2.134-66.133 68.266c-4.267 4.267-8.533 6.4-14.933 6.4s-10.667-2.133-14.934-6.4l-108.8-108.8c-8.533-8.533-8.533-21.333 0-29.866l19.2-19.2 61.867-64c21.333-23.467 44.8-46.934 66.133-70.4 21.334-23.467 44.8-46.934 66.134-70.4 4.266-4.267 12.8-8.534 19.2-6.4 42.666 8.533 76.8 4.266 104.533-12.8l17.067-12.8c8.533-6.4 19.2-4.267 25.6 2.133L576 213.333c4.267 4.267 6.4 8.534 6.4 14.934 0 6.4-2.133 10.666-6.4 14.933L473.6 352l-2.133 2.133 2.133 2.134 302.933 300.8h6.4l2.134-2.134 2.133-2.133c4.267-8.533 8.533-19.2 12.8-27.733 21.333-51.2 27.733-110.934 19.2-181.334-10.667-81.066-40.533-160-87.467-232.533-29.866-46.933-68.266-87.467-117.333-121.6-8.533-6.4-10.667-17.067-6.4-25.6 4.267-8.533 14.933-14.933 23.467-12.8C678.4 61.867 725.333 81.067 774.4 113.067 836.267 155.733 883.2 204.8 917.333 262.4c29.867 46.933 53.334 104.533 64 168.533 12.8 70.4 8.534 147.2-14.933 221.867-14.933 44.8-34.133 83.2-61.867 119.467-4.266 6.4-2.133 8.533 0 8.533 8.534 8.533 17.067 17.067 25.6 23.467 8.534 8.533 17.067 14.933 25.6 23.466l14.934 14.934c8.533 8.533 8.533 21.333 0 29.866L883.2 964.267c-4.267 4.266-8.533 6.4-14.933 6.4s-10.667-2.134-14.934-6.4l-64-64c-4.266-4.267-6.4-4.267-12.8-2.134-61.866 36.267-117.333 59.734-172.8 70.4-87.466 19.2-177.066 14.934-262.4-17.066-38.4-12.8-78.933-34.134-125.866-66.134l-4.267-4.266h-6.4c-6.4 4.266-10.667 10.666-8.533 19.2v2.133c0 36.267-14.934 61.867-42.667 76.8-6.4 8.533-17.067 12.8-29.867 12.8z m0-110.933c-2.133 0-2.133 2.133-4.266 2.133-14.934 4.267-23.467 10.667-27.734 25.6-4.266 10.667 0 23.467 10.667 34.133 10.667 8.534 23.467 10.667 36.267 4.267 8.533-4.267 17.066-12.8 17.066-36.267-2.133-23.466 6.4-44.8 25.6-57.6 12.8-10.666 34.134-10.666 51.2-4.266 0 0 2.134 0 2.134 2.133l6.4 4.267c44.8 29.866 81.066 49.066 117.333 61.866 74.667 27.734 160 34.134 236.8 17.067 51.2-10.667 102.4-32 160-66.133 21.333-12.8 44.8-10.667 64 8.533l49.067 49.067 57.6-61.867c-8.534-6.4-17.067-14.933-25.6-23.467-8.534-8.533-17.067-14.933-25.6-23.466-19.2-17.067-23.467-42.667-8.534-66.134 23.467-32 42.667-68.266 55.467-106.666 21.333-68.267 25.6-136.534 14.933-200.534C925.867 384 906.667 332.8 876.8 290.133 844.8 236.8 802.133 192 746.667 153.6c-6.4-4.267-14.934-8.533-21.334-12.8 14.934 17.067 27.734 34.133 38.4 53.333 51.2 76.8 83.2 160 93.867 249.6 8.533 76.8 2.133 145.067-23.467 204.8-4.266 8.534-8.533 17.067-12.8 27.734l-2.133 6.4s0 2.133-2.133 2.133c-8.534 12.8-21.334 21.333-34.134 21.333-17.066 2.134-32-4.266-38.4-12.8L448 386.133c-8.533-8.533-14.933-19.2-14.933-32s4.266-23.466 14.933-32l87.467-91.733L512 209.067l-6.4 4.266c-36.267 21.334-76.8 27.734-123.733 19.2-19.2 21.334-38.4 40.534-57.6 61.867-21.334 23.467-44.8 46.933-66.134 70.4L192 433.067 270.933 512l51.2-53.333c6.4-6.4 17.067-14.934 32-14.934 12.8 0 23.467 4.267 32 12.8l296.534 288c12.8 12.8 17.066 25.6 12.8 42.667-4.267 12.8-10.667 25.6-21.334 32 0 0-2.133 0-2.133 2.133C561.067 876.8 441.6 883.2 324.267 838.4c-57.6-21.333-113.067-53.333-166.4-98.133l-19.2 19.2 34.133 42.666c8.533 14.934 12.8 29.867 8.533 40.534-4.266 14.933-12.8 25.6-25.6 29.866-4.266 2.134-10.666 4.267-17.066 6.4-6.4 2.134-10.667 2.134-14.934 2.134z" p-id="1865"></path></svg>