<?xml version="1.0" standalone="no"?><!DOCTYPE svg PUBLIC "-//W3C//DTD SVG 1.1//EN" "http://www.w3.org/Graphics/SVG/1.1/DTD/svg11.dtd"><svg t="1594622747721" class="icon" viewBox="0 0 1024 1024" version="1.1" xmlns="http://www.w3.org/2000/svg" p-id="2376" xmlns:xlink="http://www.w3.org/1999/xlink" width="200" height="200"><defs><style type="text/css"></style></defs><path d="M705.82603 650.391548s-27.336602-71.746244-20.78618-78.346011 77.581178 20.97122 77.581178 20.97122zM932.278198 763.426424l-57.646183 58.312327-165.302558-166.943247 57.695527-58.213639 165.253214 166.844559zM892.0628 839.490272a4.934405 4.934405 0 0 0 7.006854 0l50.281584-50.688672a4.934405 4.934405 0 0 0 0-7.068535l-14.741534-14.951246-57.424135 57.794215zM759.142273 207.861798a28.212459 28.212459 0 0 1-8.154104 19.947331 27.805371 27.805371 0 0 1-19.737619 8.22812H287.178799a28.187787 28.187787 0 0 1 0-56.363238h444.022407a27.805371 27.805371 0 0 1 19.737619 8.22812 28.224795 28.224795 0 0 1 8.154104 19.959667zM696.425989 374.126565a28.274139 28.274139 0 0 1-8.154104 19.959667 27.805371 27.805371 0 0 1-19.737618 8.228119H321.978688a28.187787 28.187787 0 0 1 0-56.363237h346.555579a28.089099 28.089099 0 0 1 27.879386 28.175451zM625.987362 518.359214a40.893879 40.893879 0 0 1-4.737029 19.947331c-3.046995 5.292149-7.179559 8.252792-11.484826 8.22812H408.614499c-8.955945 0-16.221855-12.607404-16.221856-28.175451s7.265911-28.187787 16.221856-28.187787h201.188016c8.968281 0.074016 16.184847 12.693756 16.184847 28.187787z" p-id="2377" fill="#2c2c2c"></path><path d="M818.774554 1024H200.234588c-70.080883 0-127.060921-57.485815-127.060921-128.134154V128.134154C73.173667 57.485815 130.190713 0 200.234588 0h618.539966c70.080883 0 127.060921 57.485815 127.060921 128.134154v462.958185a25.140792 25.140792 0 1 1-50.269248 0V128.134154c0-42.707273-34.466817-77.457818-76.828681-77.457818H200.234588c-42.411208 0.024672-76.828681 34.775217-76.828681 77.457818V895.865846c0 42.707273 34.466817 77.457818 76.828681 77.457818h618.539966c71.178788 0 76.828681-17.714513 76.828681-40.856871a25.140792 25.140792 0 1 1 50.269248 0c0 45.149803-23.722151 66.787168-43.607802 76.976713-25.190136 12.903468-57.843559 14.556494-83.490127 14.556494z" p-id="2378" fill="#2c2c2c"></path></svg>